<svg width="144" height="144" viewBox="0 0 144 144" fill="none" xmlns="http://www.w3.org/2000/svg">
<rect width="144" height="144" fill="#3B3A3A" fill-opacity="0.95"/>
<path d="M104.4 54.4499L93.15 65.2499C90.9 67.0499 90 69.7499 90 71.9999C90 74.2499 90.9 76.9499 92.7 78.2999L103.95 89.0999C104.4 89.5499 107.55 90.8999 107.55 87.2999V55.7999C108 53.0999 104.85 53.9999 104.4 54.4499ZM103.5 82.3499L95.85 75.1499C94.95 74.2499 94.5 73.3499 94.5 71.9999C94.5 70.6499 94.95 69.7499 95.85 68.8499L103.5 61.6499V82.3499ZM40.5 93.5999L44.1 89.9999C43.2 89.9999 42.3 89.0999 41.85 87.7499C40.95 82.7999 40.5 77.3999 40.5 71.9999C40.5 66.5999 40.95 61.1999 41.85 56.2499C42.3 54.8999 43.2 53.9999 44.1 53.9999H78.75C79.2 53.9999 79.65 53.9999 79.65 54.4499L82.8 51.2999C81.45 50.3999 80.1 49.9499 78.75 49.9499H44.1C40.95 49.9499 38.25 52.1999 37.35 55.7999C36.45 60.7499 36 66.1499 36 71.9999C36 77.8499 36.45 83.2499 37.8 88.6499C37.8 90.8999 39.15 92.2499 40.5 93.5999ZM107.55 40.0499C108.45 39.1499 108.45 37.7999 107.55 36.8999C106.65 35.9999 105.3 35.9999 104.4 36.8999L36.9 104.4C36 105.3 36 106.65 36.9 107.55C36.9 108 37.8 108 38.25 108C38.7 108 39.6 108 40.05 107.55L53.1 94.4999H79.2C82.8 94.4999 85.95 91.3499 85.95 87.7499V61.6499L107.55 40.0499ZM81 87.7499C81 89.0999 80.1 89.9999 78.75 89.9999H57.15L81 66.1499V87.7499Z" fill="white"/>
<path d="M106.636 54.1812C105.807 53.8275 104.847 54.0012 104.197 54.6227L92.804 65.4969C90.9954 67.2218 90 69.5312 90 71.9999C90 74.4672 90.9954 76.7766 92.8035 78.5015L104.196 89.3766C104.623 89.7843 105.183 89.9999 105.75 89.9999C106.049 89.9999 106.35 89.9405 106.636 89.8185C107.464 89.4639 108 88.6508 108 87.7499V56.2499C108 55.349 107.464 54.5358 106.636 54.1812ZM40.6485 93.3906L82.9944 51.0447C81.8311 50.0939 80.366 49.4999 78.75 49.4999H44.1868C41.0116 49.4999 38.2324 51.9267 37.5754 55.2698C36.5296 60.5784 36 66.2079 36 71.9999C36 77.7918 36.5296 83.4213 37.5754 88.7277C37.9665 90.7181 39.1185 92.3682 40.6485 93.3906ZM107.341 39.8406C108.22 38.9618 108.22 37.538 107.341 36.6591C106.462 35.7803 105.038 35.7803 104.159 36.6591L85.4145 55.4039C85.397 55.2792 85.3992 55.1492 85.3762 55.0263L45.9027 94.4999H46.3185L36.6592 104.159C35.7804 105.038 35.7804 106.462 36.6592 107.341C37.0984 107.78 37.6744 108 38.25 108C38.8256 108 39.4016 107.78 39.8408 107.341L52.6815 94.4999H78.75C82.4719 94.4999 85.5 91.4718 85.5 87.7499V61.6814L107.341 39.8406Z" fill="white"/>
</svg>
