<svg width="144" height="144" viewBox="0 0 144 144" fill="none" xmlns="http://www.w3.org/2000/svg">
<rect width="144" height="144" fill="#3B3A3A" fill-opacity="0.95"/>
<path d="M106.65 54C105.75 53.55 104.85 54 104.4 54.45L93.15 65.25C90.9 67.05 90 69.75 90 72C90 74.25 90.9 76.95 92.7 78.3L103.95 89.1C104.4 89.55 104.85 89.55 105.3 89.55C105.75 89.55 105.75 89.55 106.2 89.55C107.1 89.1 107.55 88.2 107.55 87.3V55.8C108 55.35 107.55 54.45 106.65 54ZM78.75 49.5H44.1C40.95 49.5 38.25 51.75 37.35 55.35C36.45 60.75 36 66.15 36 72C36 77.85 36.45 83.25 37.8 88.65C38.25 92.25 40.95 94.5 44.1 94.5H78.75C82.35 94.5 85.5 91.35 85.5 87.75V56.25C85.5 52.65 82.35 49.5 78.75 49.5Z" fill="white"/>
</svg>
