<svg width="144" height="144" viewBox="0 0 144 144" fill="none" xmlns="http://www.w3.org/2000/svg">
<rect width="144" height="144" fill="#A72037" fill-opacity="0.95"/>
<path d="M105.3 70.2C95.85 62.55 84.15 58.5 72 58.5C59.85 58.5 48.15 62.55 38.7 70.2C36.45 72 35.55 74.25 36 76.95C36 77.4 36.9 79.2 36.9 79.2C38.7 81.9 40.95 85.5 45.45 84.6L48.6 84.15C53.55 83.25 59.85 80.55 60.75 74.7L61.65 69.75H80.55L81.45 74.7C82.8 80.55 89.1 83.25 93.6 83.7L96.75 84.15C97.2 84.15 97.65 84.15 97.65 84.15C100.8 84.15 102.6 81.9 104.4 79.65L106.2 76.5C108.45 74.25 107.55 72 105.3 70.2Z" fill="white"/>
</svg>
