<svg width="144" height="144" viewBox="0 0 144 144" fill="none" xmlns="http://www.w3.org/2000/svg">
<rect width="144" height="144" fill="#3B3A3A" fill-opacity="0.95"/>
<path d="M93.735 70.2C89.9166 70.7488 86.396 72.5726 83.745 75.375C82.755 76.185 81.945 77.22 81 78.03L80.145 76.815C80.775 69.48 81.54 62.145 81.99 54.765C82.215 51.705 82.575 48.51 82.575 45.45C82.575 43.605 80.415 42.66 78.84 42.66C78.0518 42.5791 77.2621 42.7982 76.6283 43.2735C75.9944 43.7489 75.563 44.4457 75.42 45.225L74.115 66.33C74.115 67.365 74.115 68.4 72.81 68.4C71.505 68.4 71.46 67.5 71.46 66.69C71.46 58.77 72.135 50.805 72.135 42.84C72.135 40.005 71.82 37.395 68.355 37.395C64.89 37.395 64.53 39.69 64.53 42.435C64.53 50.31 64.53 58.185 64.53 66.06C64.5438 66.4679 64.4032 66.866 64.1362 67.1747C63.8693 67.4834 63.4956 67.6799 63.09 67.725C62.7002 67.6907 62.3383 67.5083 62.0788 67.2154C61.8193 66.9224 61.682 66.5411 61.695 66.15L61.245 43.65C61.2008 42.8212 60.8487 42.0389 60.2576 41.4562C59.6666 40.8735 58.8793 40.5325 58.05 40.5C56.07 40.5 54.045 41.58 54.135 43.83C54.495 52.29 54.945 60.75 55.35 69.255C55.375 69.4537 55.3595 69.6554 55.3045 69.8479C55.2495 70.0404 55.1562 70.2199 55.0301 70.3754C54.904 70.5309 54.7477 70.6594 54.5707 70.753C54.3937 70.8466 54.1995 70.9034 54 70.92C53.1 70.92 52.695 70.155 52.605 69.39C52.515 68.625 52.605 66.825 52.605 65.61C52.605 61.785 52.335 57.87 51.975 54.045C51.975 51.975 50.76 51.255 48.78 51.255C46.8 51.255 45 52.2 45 54.27C45 56.34 45 57.06 45.315 58.5C45.765 64.35 46.35 70.2 46.35 76.095C46.35 76.995 46.35 77.895 46.35 78.795C46.0057 86.0064 48.0632 93.1282 52.2 99.045C53.1992 100.199 54.0322 101.486 54.675 102.87C54.8541 103.549 55.2048 104.171 55.6934 104.675C56.182 105.179 56.792 105.549 57.465 105.75C60.4109 106.457 63.4366 106.774 66.465 106.695C69.885 106.695 75.465 106.695 77.085 102.735C77.49 101.7 77.355 99.81 78.165 99C82.4207 95.1123 86.0085 90.5515 88.785 85.5C89.3335 84.2445 89.9649 83.0268 90.675 81.855C92.4774 79.4578 94.9066 77.6047 97.695 76.5C98.1206 76.3639 98.4948 76.1017 98.7681 75.7481C99.0413 75.3945 99.2006 74.9662 99.225 74.52C99.225 71.595 96.075 70.2 93.735 70.2Z" fill="white"/>
</svg>
