<svg width="144" height="144" viewBox="0 0 144 144" fill="none" xmlns="http://www.w3.org/2000/svg">
<rect width="144" height="144" fill="#3B3A3A" fill-opacity="0.95"/>
<path d="M93.825 68.49C90.7631 68.4305 87.7693 69.3968 85.32 71.235C84.4737 72.0749 83.5717 72.8567 82.62 73.575C82.935 68.805 83.295 64.035 83.655 59.265C83.925 55.575 84.465 51.57 84.465 47.88C84.4296 46.2326 83.7503 44.6647 82.5727 43.5122C81.395 42.3598 79.8127 41.7146 78.165 41.715C77.1969 41.6958 76.2342 41.8639 75.33 42.21C75.3256 41.3571 75.1469 40.5142 74.8048 39.733C74.4627 38.9517 73.9645 38.2487 73.3407 37.6671C72.717 37.0854 71.9808 36.6375 71.1776 36.3508C70.3744 36.0642 69.521 35.9448 68.67 36C67.1658 35.8241 65.6472 36.1769 64.3746 36.9979C63.1021 37.8189 62.1547 39.057 61.695 40.5C60.6985 40.0288 59.6007 39.8124 58.5 39.87C57.6566 39.8267 56.8134 39.9572 56.0225 40.2533C55.2317 40.5494 54.5101 41.0048 53.9026 41.5913C53.295 42.1777 52.8144 42.8828 52.4905 43.6627C52.1667 44.4425 52.0065 45.2806 52.02 46.125V50.04C51.2137 49.7281 50.3632 49.5459 49.5 49.5C48.6726 49.4881 47.851 49.6393 47.0821 49.9449C46.3132 50.2506 45.612 50.7047 45.0186 51.2814C44.4253 51.8581 43.9513 52.546 43.6238 53.3058C43.2963 54.0657 43.1217 54.8826 43.11 55.71C43.11 58.95 43.56 62.325 43.785 65.52C44.145 70.02 44.235 74.115 44.235 78.48C43.9043 86.0166 46.0715 93.4515 50.4 99.63C51.0737 100.345 51.6488 101.147 52.11 102.015C52.4587 103.167 53.0838 104.216 53.9309 105.071C54.778 105.926 55.8213 106.561 56.97 106.92C59.9149 107.632 62.9413 107.95 65.97 107.865C71.01 107.865 76.995 107.37 78.975 101.835C79.1724 101.05 79.3227 100.253 79.425 99.45C83.5264 95.7157 86.9518 91.3007 89.55 86.4C90.1477 84.8102 91.0857 83.3702 92.2983 82.181C93.511 80.9917 94.9688 80.0818 96.57 79.515C98.82 78.525 100.755 77.355 100.755 74.61C100.703 73.7526 100.483 72.9137 100.107 72.1416C99.73 71.3696 99.2048 70.6794 98.5609 70.1108C97.917 69.5422 97.1672 69.1063 96.3545 68.8282C95.5418 68.5501 94.6822 68.4351 93.825 68.49V68.49ZM65.925 103.5C63.2611 103.572 60.5991 103.3 58.005 102.69C57.5236 102.514 57.0941 102.22 56.756 101.834C56.4179 101.449 56.182 100.985 56.07 100.485C55.4151 99.1352 54.5827 97.8791 53.595 96.75C48.69 90.54 48.555 83.565 48.555 76.14C48.555 71.1 48.105 66.15 47.7 61.155C47.7 59.445 47.34 57.78 47.34 56.07C47.34 54.36 48.915 54.09 50.085 54.09C51.255 54.09 51.975 54.54 52.155 55.935C52.695 61.29 52.38 67.095 52.965 72.45C52.9588 72.7294 53.0093 73.0072 53.1134 73.2666C53.2175 73.526 53.3731 73.7616 53.5707 73.9592C53.7684 74.1568 54.004 74.3124 54.2634 74.4165C54.5228 74.5206 54.8005 74.5711 55.08 74.565C55.6574 74.508 56.1891 74.2256 56.5598 73.7791C56.9304 73.3327 57.1101 72.7581 57.06 72.18C56.655 63.585 56.25 55.035 55.89 46.44C55.9062 46.1201 55.988 45.807 56.1303 45.52C56.2725 45.233 56.4721 44.9782 56.7168 44.7715C56.9615 44.5648 57.246 44.4105 57.5527 44.3182C57.8594 44.226 58.1818 44.1976 58.5 44.235C58.827 44.1961 59.1587 44.2281 59.4723 44.3288C59.7859 44.4295 60.0742 44.5965 60.3175 44.8185C60.5608 45.0405 60.7535 45.3123 60.8825 45.6153C61.0115 45.9184 61.0737 46.2457 61.065 46.575L61.47 67.05C61.4262 67.3443 61.4464 67.6446 61.5292 67.9304C61.612 68.2162 61.7555 68.4808 61.9498 68.7062C62.1441 68.9315 62.3848 69.1123 62.6553 69.2363C62.9258 69.3602 63.2199 69.4244 63.5175 69.4244C63.815 69.4244 64.1091 69.3602 64.3796 69.2363C64.6501 69.1123 64.8908 68.9315 65.0851 68.7062C65.2794 68.4808 65.4229 68.2162 65.5057 67.9304C65.5885 67.6446 65.6087 67.3443 65.565 67.05C65.565 60.21 65.205 53.55 65.205 46.485C65.205 43.92 64.935 40.59 68.445 40.59C71.955 40.59 71.28 43.155 71.28 45.405C71.28 52.875 70.83 60.3 70.56 67.905C70.5417 68.1888 70.5796 68.4734 70.6715 68.7425C70.7635 69.0115 70.9077 69.2598 71.0958 69.473C71.284 69.6863 71.5124 69.8602 71.7679 69.985C72.0234 70.1097 72.3011 70.1828 72.585 70.2C73.1421 70.1768 73.6686 69.939 74.0545 69.5364C74.4403 69.1338 74.6554 68.5976 74.655 68.04L75.33 49.5C75.33 47.565 75.33 46.17 77.805 46.17C79.155 46.17 80.325 46.845 80.325 48.285C80.325 51.57 79.785 55.53 79.56 58.86C79.065 65.16 78.345 71.595 78.345 77.94C79.0158 78.5821 79.893 78.9649 80.82 79.02C84.555 79.02 88.29 72.945 93.825 72.945C94.635 72.945 96.57 73.44 96.705 74.385C96.0042 74.8899 95.2302 75.2844 94.41 75.555C91.7736 76.8305 89.4645 78.6932 87.66 81C86.9452 82.0917 86.3421 83.2525 85.86 84.465C83.9286 88.1917 81.4059 91.5807 78.39 94.5L76.275 96.615C73.665 99.495 78.075 103.5 65.925 103.5Z" fill="white"/>
</svg>
