<svg width="144" height="144" viewBox="0 0 144 144" fill="none" xmlns="http://www.w3.org/2000/svg">
<rect width="144" height="144" fill="#3B3A3A" fill-opacity="0.95"/>
<path d="M99 72C99 74.3202 98.708 76.5634 98.1212 78.7324C97.5344 80.9014 96.7079 82.9512 95.6426 84.8848C94.5774 86.8183 93.2944 88.6007 91.7932 90.2286C90.292 91.8565 88.6291 93.2836 86.801 94.5C84.973 95.7164 82.9973 96.7079 80.8772 97.4707C78.7572 98.2336 76.5461 98.7048 74.2504 98.8945V105.75C74.2504 106.362 74.029 106.889 73.5826 107.332C73.1362 107.775 72.608 108 72 108C71.392 108 70.8646 107.775 70.4178 107.332C69.971 106.889 69.75 106.362 69.75 105.75V98.8945C67.4298 98.7048 65.2147 98.2336 63.1055 97.4707C60.9962 96.7079 59.0202 95.7164 57.1817 94.5C55.3432 93.2836 53.6731 91.8562 52.1719 90.2286C50.6707 88.601 49.3945 86.8183 48.3397 84.8848C47.2849 82.9512 46.4659 80.9017 45.8788 78.7324C45.2916 76.563 45 74.3202 45 72C45 71.3902 45.2214 70.8628 45.6678 70.4178C46.1142 69.9728 46.642 69.75 47.25 69.75C47.858 69.75 48.3854 69.9732 48.8322 70.4178C49.279 70.8624 49.5 71.3902 49.5 72C49.5 74.039 49.7707 76.0147 50.3086 77.9238C50.8464 79.8329 51.6092 81.6188 52.5938 83.2853C53.5784 84.9517 54.756 86.4706 56.1269 87.8555C57.4978 89.2404 59.0202 90.4219 60.6971 91.4062C62.374 92.3904 64.1671 93.15 66.0758 93.6914C67.9846 94.2329 69.961 94.5 72 94.5C74.039 94.5 76.0147 94.2329 77.9238 93.6914C79.8329 93.15 81.6221 92.3908 83.2853 91.4062C84.9485 90.4216 86.4738 89.2404 87.8555 87.8555C89.2372 86.4706 90.4219 84.9517 91.4062 83.2853C92.3904 81.6188 93.1536 79.8329 93.6914 77.9238C94.2293 76.0147 94.5 74.039 94.5 72C94.5 71.3902 94.7214 70.8628 95.1678 70.4178C95.6142 69.9728 96.1416 69.75 96.75 69.75C97.3584 69.75 97.8854 69.9732 98.3322 70.4178C98.779 70.8624 99 71.3902 99 72ZM85.5 49.5V72C85.5 73.8511 85.1414 75.5914 84.4276 77.2207C83.714 78.8483 82.7399 80.2793 81.5098 81.5098C80.2796 82.7402 78.8483 83.714 77.2207 84.4276C75.5932 85.1411 73.8526 85.5 72 85.5C70.1474 85.5 68.4072 85.1414 66.7793 84.4276C65.1514 83.7137 63.7207 82.7399 62.4902 81.5098C61.2598 80.2796 60.286 78.8483 59.5724 77.2207C58.8586 75.5914 58.5 73.8511 58.5 72V49.5C58.5 47.6489 58.8586 45.9086 59.5724 44.2793C60.2863 42.6499 61.2601 41.2207 62.4902 39.9902C63.7204 38.7598 65.1517 37.7878 66.7793 37.0724C68.4068 36.3571 70.1474 36 72 36C73.8526 36 75.5928 36.3568 77.2207 37.0724C78.8486 37.7881 80.2793 38.7601 81.5098 39.9902C82.7402 41.2204 83.714 42.6499 84.4276 44.2793C85.1411 45.9086 85.5 47.6489 85.5 49.5Z" fill="white"/>
</svg>
