<svg width="144" height="144" viewBox="0 0 144 144" fill="none" xmlns="http://www.w3.org/2000/svg">
<rect width="144" height="144" fill="#3B3A3A" fill-opacity="0.95"/>
<path d="M72 92.7001C83.4323 92.7001 92.7 83.4324 92.7 72.0001C92.7 60.5678 83.4323 51.3001 72 51.3001C60.5677 51.3001 51.3 60.5678 51.3 72.0001C51.3 83.4324 60.5677 92.7001 72 92.7001Z" fill="#C4314B"/>
<path d="M72 36C52.2 36 36 52.2 36 72C36 91.8 52.2 108 72 108C91.8 108 108 91.8 108 72C108 52.2 91.8 36 72 36ZM72 100.35C56.25 100.35 43.65 87.75 43.65 72C43.65 56.25 56.25 43.65 72 43.65C87.75 43.65 100.35 56.25 100.35 72C100.35 87.75 87.75 100.35 72 100.35Z" fill="white"/>
</svg>
