<svg width="144" height="144" viewBox="0 0 144 144" fill="none" xmlns="http://www.w3.org/2000/svg">
<rect width="144" height="144" fill="#3B3A3A" fill-opacity="0.95"/>
<path d="M101.25 40.5H42.75C39.0278 40.5 36 43.5278 36 47.25V87.75C36 91.4722 39.0278 94.5 42.75 94.5H58.5C59.7437 94.5 60.75 93.4937 60.75 92.25C60.75 91.0063 59.7437 90 58.5 90H42.75C41.5085 90 40.5 88.9893 40.5 87.75V47.25C40.5 46.0085 41.5085 45 42.75 45H101.25C102.489 45 103.5 46.0085 103.5 47.25V87.75C103.5 88.9893 102.489 90 101.25 90H85.5C84.2563 90 83.25 91.0063 83.25 92.25C83.25 93.4937 84.2563 94.5 85.5 94.5H101.25C104.972 94.5 108 91.4722 108 87.75V47.25C108 43.5278 104.972 40.5 101.25 40.5Z" fill="white"/>
<path d="M85.5 80.9999C86.6514 80.9999 87.8027 80.5605 88.6816 79.6816C90.4395 77.9238 90.4395 75.0761 88.6816 73.3183L75.183 59.8197C74.7683 59.4044 74.2703 59.0756 73.7196 58.8474C72.6194 58.3923 71.3806 58.3923 70.2804 58.8474C69.7297 59.0756 69.2317 59.4044 68.817 59.8197L55.3184 73.3183C53.5605 75.0761 53.5605 77.9238 55.3184 79.6816C56.1973 80.5605 57.3486 80.9999 58.5 80.9999C59.6514 80.9999 60.8027 80.5605 61.6816 79.6816L67.5 73.8632V101.25C67.5 103.737 69.5149 105.75 72 105.75C74.4851 105.75 76.5 103.737 76.5 101.25V73.8632L82.3184 79.6816C83.1973 80.5605 84.3486 80.9999 85.5 80.9999Z" fill="white"/>
</svg>
