<svg width="144" height="144" viewBox="0 0 144 144" fill="none" xmlns="http://www.w3.org/2000/svg">
<rect width="144" height="144" fill="#3B3A3A" fill-opacity="0.95"/>
<path d="M52.2002 82.35C50.4002 79.2 49.5002 75.6 49.5002 72C49.5002 70.65 48.6002 69.75 47.2502 69.75C45.9002 69.75 45.0002 70.65 45.0002 72C45.0002 76.95 46.3502 81.9 49.0502 85.95L52.2002 82.35ZM72.0002 85.5C79.6502 85.5 85.5002 79.65 85.5002 72V61.65L107.55 39.6C108.45 38.7 108.45 37.35 107.55 36.45C106.65 35.55 105.3 35.55 104.4 36.45L36.9002 103.95C36.0002 104.85 36.0002 106.2 36.9002 107.1C36.9002 108 37.8002 108 38.2502 108C38.7002 108 39.6002 108 40.0502 107.55L54.9002 92.7C58.9502 96.3 64.3502 98.55 70.2002 99V105.75C70.2002 107.1 71.1002 108 72.4502 108C73.8002 108 74.7002 107.1 74.7002 105.75V99C88.6502 97.65 99.4502 86.4 99.4502 72C99.4502 70.65 98.5502 69.75 97.2002 69.75C95.8502 69.75 94.5002 70.65 94.5002 72C94.5002 84.6 84.6002 94.5 72.0002 94.5C66.6002 94.5 61.6502 92.7 57.6002 89.55L63.9002 83.25C66.6002 84.6 69.3002 85.5 72.0002 85.5ZM85.5002 49.05C85.5002 41.85 79.2002 36 72.0002 36C64.3502 36 58.5002 41.85 58.5002 49.5V72C58.5002 73.35 58.5002 74.7 58.9502 75.6L85.5002 49.05Z" fill="white"/>
</svg>
